<svg width="244" height="210" viewBox="0 0 244 210" fill="none" xmlns="http://www.w3.org/2000/svg">
<path d="M222.345 100.178C215.838 90.5087 180.051 41.9863 119.255 43.5544C63.0329 44.774 30.4996 87.1112 21.6546 100.178C20.7622 101.503 20.2925 103.005 20.2925 104.534C20.2925 106.063 20.7622 107.565 21.6546 108.89C28.0596 118.385 62.3212 165.514 122.203 165.514H124.745C180.966 164.294 213.601 121.957 222.345 108.89C223.237 107.565 223.707 106.063 223.707 104.534C223.707 103.005 223.237 101.503 222.345 100.178ZM124.236 148.091C80.4179 148.962 51.8496 116.817 42.9029 104.534C53.0696 90.5087 79.6046 61.8483 120.271 60.9771C163.886 60.0189 192.556 92.2509 201.605 104.534C191.133 118.559 164.903 147.22 124.236 148.091Z" fill="#231F20"/>
<path d="M122 74.0442C114.962 74.0442 108.083 75.8324 102.231 79.1826C96.3794 82.5329 91.8186 87.2948 89.1254 92.866C86.4322 98.4373 85.7275 104.568 87.1005 110.482C88.4735 116.397 91.8625 121.829 96.8389 126.094C101.815 130.358 108.156 133.261 115.058 134.438C121.961 135.614 129.115 135.011 135.617 132.703C142.119 130.395 147.677 126.487 151.587 121.473C155.497 116.459 157.583 110.564 157.583 104.534C157.583 96.4476 153.834 88.6924 147.161 82.9744C140.488 77.2565 131.437 74.0442 122 74.0442ZM122 117.601C118.984 117.601 116.036 116.835 113.528 115.399C111.02 113.963 109.065 111.922 107.911 109.535C106.757 107.147 106.455 104.519 107.043 101.985C107.632 99.45 109.084 97.1216 111.217 95.2942C113.349 93.4667 116.067 92.2222 119.025 91.718C121.983 91.2138 125.049 91.4726 127.836 92.4616C130.623 93.4506 133.004 95.1255 134.68 97.2743C136.356 99.4232 137.25 101.95 137.25 104.534C137.25 108 135.643 111.323 132.783 113.774C129.924 116.224 126.045 117.601 122 117.601Z" fill="#231F20"/>
</svg>
