<svg width="244" height="210" viewBox="0 0 244 210" fill="none" xmlns="http://www.w3.org/2000/svg">
<path d="M181.068 116.645C198.965 104.048 210.567 86.0666 213.499 66.3804C213.66 65.2364 213.555 64.0766 213.192 62.9671C212.829 61.8577 212.215 60.8203 211.384 59.9143C210.554 59.0083 209.523 58.2514 208.351 57.6868C207.178 57.1222 205.888 56.7609 204.553 56.6237C203.218 56.4864 201.864 56.5758 200.569 56.8867C199.274 57.1977 198.064 57.7241 197.007 58.436C195.949 59.1478 195.066 60.0312 194.407 61.0355C193.748 62.0399 193.326 63.1457 193.166 64.2897C190.736 78.9795 182.198 92.4238 169.123 102.151C156.048 111.878 139.315 117.234 121.999 117.234C104.684 117.234 87.9508 111.878 74.8758 102.151C61.8009 92.4238 53.2633 78.9795 50.8328 64.2897C50.6726 63.1457 50.251 62.0399 49.592 61.0355C48.9331 60.0312 48.0497 59.1478 46.9924 58.436C45.935 57.7241 44.7244 57.1977 43.4296 56.8867C42.1348 56.5758 40.7812 56.4864 39.4461 56.6237C38.111 56.7609 36.8205 57.1222 35.6484 57.6868C34.4762 58.2514 33.4453 59.0083 32.6145 59.9143C31.7838 60.8203 31.1694 61.8577 30.8065 62.9671C30.4436 64.0766 30.3392 65.2364 30.4995 66.3804C33.4055 86.0536 44.9699 104.033 62.8294 116.645L39.4461 136.855C37.7806 138.522 36.9102 140.666 37.0091 142.858C37.1079 145.05 38.1686 147.13 39.9792 148.682C41.7899 150.233 44.217 151.142 46.7757 151.227C49.3345 151.311 51.8362 150.566 53.7811 149.138L80.3161 126.489C90.1758 130.758 100.851 133.473 111.833 134.503V165.516C111.833 167.826 112.904 170.042 114.811 171.676C116.717 173.309 119.303 174.227 121.999 174.227C124.696 174.227 127.282 173.309 129.188 171.676C131.095 170.042 132.166 167.826 132.166 165.516V134.503C143.148 133.473 153.823 130.758 163.683 126.489L190.218 149.138C192.163 150.566 194.664 151.311 197.223 151.227C199.782 151.142 202.209 150.233 204.02 148.682C205.83 147.13 206.891 145.05 206.99 142.858C207.089 140.666 206.218 138.522 204.553 136.855L181.068 116.645Z" fill="#231F20"/>
</svg>
