<svg width="73" height="89" viewBox="0 0 73 89" fill="none" xmlns="http://www.w3.org/2000/svg">
<path d="M52.5909 56.6364H20.2273C14.8646 56.6428 9.72348 58.7759 5.93153 62.5679C2.13957 66.3598 0.00642361 71.501 0 76.8636V84.9545C0 86.0275 0.426216 87.0564 1.18489 87.8151C1.94356 88.5738 2.97253 89 4.04545 89H68.7727C69.8456 89 70.8746 88.5738 71.6333 87.8151C72.392 87.0564 72.8182 86.0275 72.8182 84.9545V76.8636C72.8118 71.501 70.6786 66.3598 66.8867 62.5679C63.0947 58.7759 57.9535 56.6428 52.5909 56.6364ZM64.7273 80.9091H8.09091V76.8636C8.09091 73.6449 9.36956 70.5579 11.6456 68.2819C13.9216 66.0059 17.0085 64.7273 20.2273 64.7273H52.5909C55.8097 64.7273 58.8966 66.0059 61.1726 68.2819C63.4486 70.5579 64.7273 73.6449 64.7273 76.8636V80.9091ZM63.542 39.2692C63.9939 38.8159 64.3319 38.2618 64.528 37.6525C64.7241 37.0431 64.7729 36.3959 64.6702 35.7641C64.5675 35.1322 64.3164 34.5338 63.9374 34.0179C63.5584 33.502 63.0624 33.0834 62.4901 32.7965C56.8912 29.989 56.6364 20.4255 56.6364 20.2273C56.6364 14.8627 54.5053 9.71778 50.7119 5.92443C46.9186 2.13108 41.7737 0 36.4091 0C31.0445 0 25.8996 2.13108 22.1062 5.92443C18.3129 9.71778 16.1818 14.8627 16.1818 20.2273C16.1818 20.3244 15.9593 29.9849 10.328 32.8005C9.7558 33.0874 9.25979 33.506 8.88081 34.0219C8.50182 34.5378 8.25067 35.1363 8.14799 35.7681C8.04532 36.4 8.09405 37.0472 8.29019 37.6565C8.48632 38.2659 8.82426 38.82 9.27623 39.2733C16.8341 45.6636 26.521 48.974 36.4091 48.5455C46.2977 48.9728 55.9847 45.661 63.542 39.2692ZM24.2727 20.2273C24.2727 17.0085 25.5514 13.9216 27.8274 11.6456C30.1034 9.36956 33.1903 8.09091 36.4091 8.09091C39.6279 8.09091 42.7148 9.36956 44.9908 11.6456C47.2668 13.9216 48.5455 17.0085 48.5455 20.2273C48.6209 26.0033 50.5354 31.6049 54.0109 36.219C48.6056 39.1215 42.543 40.5803 36.4091 40.4545C30.2752 40.5801 24.2126 39.1213 18.8073 36.219C22.2828 31.6049 24.1973 26.0033 24.2727 20.2273Z" fill="black"/>
</svg>
