<svg width="404" height="255" viewBox="0 0 404 255" fill="none" xmlns="http://www.w3.org/2000/svg">
<rect width="404" height="255" fill="#D9D9D9"/>
<path d="M214.294 127.206C207.785 123.727 201.551 120.529 195.18 117.189V137.166C201.885 133.521 208.952 130.183 214.322 127.206H214.294Z" fill="white"/>
<path d="M214.294 127.206C207.785 123.727 195.18 117.189 195.18 117.189L211.985 128.485C211.985 128.485 208.924 130.183 214.294 127.206Z" fill="#E8E0E0"/>
<path d="M196.405 152.803C182.883 152.554 178.265 152.33 175.426 151.745C173.506 151.356 171.837 150.494 170.613 149.242C169.667 148.295 168.915 146.85 168.332 144.845C167.831 143.175 167.636 141.785 167.358 138.391C166.933 130.73 166.831 124.466 167.358 117.467C167.793 113.603 168.004 109.015 170.891 106.338C172.254 105.085 173.84 104.279 175.621 103.946C178.403 103.418 190.256 103 202.526 103C214.769 103 226.648 103.418 229.433 103.946C231.657 104.363 233.744 105.615 234.969 107.228C237.604 111.372 237.65 116.526 237.917 120.556C238.028 122.477 238.028 133.383 237.917 135.303C237.501 141.673 237.166 143.927 236.22 146.264C235.636 147.739 235.136 148.518 234.272 149.381C232.917 150.708 231.189 151.592 229.319 151.912C217.618 152.792 207.682 152.983 196.405 152.803ZM214.324 127.206C207.814 123.727 201.58 120.501 195.209 117.162V137.139C201.914 133.494 208.982 130.155 214.351 127.178L214.324 127.206Z" fill="#CD201F"/>
</svg>
