<svg width="123" height="150" viewBox="0 0 123 150" fill="none" xmlns="http://www.w3.org/2000/svg">
<path d="M88.6364 95.4545H34.0909C25.0528 95.4654 16.3879 99.0606 9.99695 105.451C3.60601 111.842 0.0108263 120.507 0 129.545V143.182C0 144.99 0.718342 146.724 1.997 148.003C3.27566 149.282 5.00989 150 6.81818 150H115.909C117.717 150 119.452 149.282 120.73 148.003C122.009 146.724 122.727 144.99 122.727 143.182V129.545C122.716 120.507 119.121 111.842 112.73 105.451C106.339 99.0606 97.6745 95.4654 88.6364 95.4545ZM109.091 136.364H13.6364V129.545C13.6364 124.121 15.7914 118.918 19.6274 115.082C23.4633 111.246 28.666 109.091 34.0909 109.091H88.6364C94.0612 109.091 99.2639 111.246 103.1 115.082C106.936 118.918 109.091 124.121 109.091 129.545V136.364ZM107.093 66.1841C107.855 65.4201 108.424 64.4862 108.755 63.4592C109.086 62.4322 109.168 61.3414 108.995 60.2765C108.822 59.2116 108.398 58.203 107.76 57.3335C107.121 56.464 106.285 55.7585 105.32 55.275C95.8841 50.5432 95.4545 34.425 95.4545 34.0909C95.4546 25.0494 91.8628 16.3783 85.4696 9.985C79.0763 3.59171 70.4051 0 61.3636 0C52.3222 0 43.651 3.59171 37.2577 9.985C30.8644 16.3783 27.2727 25.0494 27.2727 34.0909C27.2727 34.2545 26.8977 50.5364 17.4068 55.2818C16.4424 55.7653 15.6064 56.4708 14.9677 57.3403C14.3289 58.2098 13.9056 59.2184 13.7326 60.2833C13.5595 61.3482 13.6417 62.439 13.9722 63.466C14.3028 64.493 14.8724 65.4269 15.6341 66.1909C28.3721 76.9612 44.6983 82.5404 61.3636 81.8182C78.0299 82.5385 94.3562 76.9568 107.093 66.1841ZM40.9091 34.0909C40.9091 28.666 43.0641 23.4633 46.9001 19.6274C50.7361 15.7914 55.9388 13.6364 61.3636 13.6364C66.7885 13.6364 71.9912 15.7914 75.8272 19.6274C79.6632 23.4633 81.8182 28.666 81.8182 34.0909C81.9454 43.8258 85.172 53.2668 91.0295 61.0432C81.9196 65.935 71.7017 68.3938 61.3636 68.1818C51.0256 68.3935 40.8078 65.9347 31.6977 61.0432C37.5553 53.2668 40.7819 43.8258 40.9091 34.0909Z" fill="black"/>
</svg>
